<?plantuml 1.2026.2?><svg xmlns="http://www.w3.org/2000/svg" xmlns:xlink="http://www.w3.org/1999/xlink" contentStyleType="text/css" data-diagram-type="DESCRIPTION" height="384px" preserveAspectRatio="none" style="width:1241px;height:384px;background:#FFFFFF;" version="1.1" viewBox="0 0 1241 384" width="1241px" zoomAndPan="magnify"><title>Corkysoft Quote + Routing Core</title><defs/><g><g class="title" data-source-line="1"><text fill="#000000" font-family="sans-serif" font-size="14" font-weight="bold" lengthAdjust="spacing" textLength="221.4651" x="503.1624" y="24.9659">Corkysoft Quote + Routing Core</text></g><!--cluster Quote + Routing Core--><g class="cluster" data-qualified-name="Quote . Routing Core" data-source-line="7" id="ent0002"><path d="M8.5,46.6699 L159.3834,46.6699 A3.75,3.75 0 0 1 161.8834,49.1699 L168.8834,71.7378 L1232.29,71.7378 A2.5,2.5 0 0 1 1234.79,74.2378 L1234.79,287.1699 A2.5,2.5 0 0 1 1232.29,289.6699 L8.5,289.6699 A2.5,2.5 0 0 1 6,287.1699 L6,49.1699 A2.5,2.5 0 0 1 8.5,46.6699" fill="none" style="stroke:#000000;stroke-width:1.5;"/><line style="stroke:#000000;stroke-width:1.5;" x1="6" x2="168.8834" y1="71.7378" y2="71.7378"/><text fill="#000000" font-family="sans-serif" font-size="14" font-weight="bold" lengthAdjust="spacing" textLength="149.8834" x="10" y="63.6358">Quote + Routing Core</text></g><!--entity corkysoft_au_address--><g class="entity" data-qualified-name="Quote . Routing Core.corkysoft_au_address" data-source-line="8" id="ent0003"><rect fill="#F1F1F1" height="39.0679" rx="2.5" ry="2.5" style="stroke:#181818;stroke-width:0.5;" width="159.2715" x="1059.51" y="169.1299"/><text fill="#000000" font-family="sans-serif" font-size="14" lengthAdjust="spacing" textLength="139.2715" x="1069.51" y="194.0958">corkysoft.au_address</text></g><!--entity corkysoft_pricing--><g class="entity" data-qualified-name="Quote . Routing Core.corkysoft_pricing" data-source-line="9" id="ent0004"><rect fill="#F1F1F1" height="39.0679" rx="2.5" ry="2.5" style="stroke:#181818;stroke-width:0.5;" width="129.9836" x="258.01" y="85.1299"/><text fill="#000000" font-family="sans-serif" font-size="14" lengthAdjust="spacing" textLength="109.9836" x="268.01" y="110.0958">corkysoft.pricing</text></g><!--entity corkysoft_quote_service--><g class="entity" data-qualified-name="Quote . Routing Core.corkysoft_quote_service" data-source-line="10" id="ent0005"><rect fill="#F1F1F1" height="39.0679" rx="2.5" ry="2.5" style="stroke:#181818;stroke-width:0.5;" width="175.0074" x="22" y="197.1299"/><text fill="#000000" font-family="sans-serif" font-size="14" lengthAdjust="spacing" textLength="155.0074" x="32" y="222.0958">corkysoft.quote_service</text></g><!--entity corkysoft_repo--><g class="entity" data-qualified-name="Quote . Routing Core.corkysoft_repo" data-source-line="11" id="ent0006"><rect fill="#F1F1F1" height="39.0679" rx="2.5" ry="2.5" style="stroke:#181818;stroke-width:0.5;" width="115.1436" x="265.43" y="197.1299"/><text fill="#000000" font-family="sans-serif" font-size="14" lengthAdjust="spacing" textLength="95.1436" x="275.43" y="222.0958">corkysoft.repo</text></g><!--entity corkysoft_routing--><g class="entity" data-qualified-name="Quote . Routing Core.corkysoft_routing" data-source-line="12" id="ent0007"><rect fill="#F1F1F1" height="39.0679" rx="2.5" ry="2.5" style="stroke:#181818;stroke-width:0.5;" width="133.2176" x="586.87" y="220.1299"/><text fill="#000000" font-family="sans-serif" font-size="14" lengthAdjust="spacing" textLength="113.2176" x="596.87" y="245.0958">corkysoft.routing</text></g><!--entity corkysoft_routing_providers--><g class="entity" data-qualified-name="Quote . Routing Core.corkysoft_routing_providers" data-source-line="13" id="ent0008"><rect fill="#F1F1F1" height="39.0679" rx="2.5" ry="2.5" style="stroke:#181818;stroke-width:0.5;" width="199.5493" x="798.96" y="197.1299"/><text fill="#000000" font-family="sans-serif" font-size="14" lengthAdjust="spacing" textLength="179.5493" x="808.96" y="222.0958">corkysoft.routing.providers</text></g><!--entity corkysoft_schema--><g class="entity" data-qualified-name="Quote . Routing Core.corkysoft_schema" data-source-line="14" id="ent0009"><rect fill="#F1F1F1" height="39.0679" rx="2.5" ry="2.5" style="stroke:#181818;stroke-width:0.5;" width="135.3036" x="41.85" y="104.1299"/><text fill="#000000" font-family="sans-serif" font-size="14" lengthAdjust="spacing" textLength="115.3036" x="51.85" y="129.0958">corkysoft.schema</text></g><!--entity external_analytics_persistence--><g class="entity" data-qualified-name="external_analytics_persistence" data-source-line="26" id="ent0020"><rect fill="#F1F1F1" height="39.0679" rx="2.5" ry="2.5" style="stroke:#181818;stroke-width:0.5;" width="168.9734" x="568.99" y="320.1299"/><text fill="#000000" font-family="sans-serif" font-size="14" lengthAdjust="spacing" textLength="58.2958" x="578.99" y="345.0958">Analytics</text><text fill="#000000" font-family="sans-serif" font-size="14" lengthAdjust="spacing" textLength="3.64" x="637.2858" y="345.0958">&#160;</text><text fill="#000000" font-family="sans-serif" font-size="14" lengthAdjust="spacing" textLength="8.008" x="640.9258" y="345.0958">+</text><text fill="#000000" font-family="sans-serif" font-size="14" lengthAdjust="spacing" textLength="3.64" x="648.9337" y="345.0958">&#160;</text><text fill="#000000" font-family="sans-serif" font-size="14" lengthAdjust="spacing" textLength="75.3897" x="652.5737" y="345.0958">Persistence</text></g><!--link corkysoft_quote_service to corkysoft_au_address--><g class="link" data-entity-1="ent0005" data-entity-2="ent0003" data-link-type="dependency" data-source-line="16" id="lnk10"><path d="M176.7,196.6599 C201.91,189.9399 231.05,183.2499 258.01,179.6699 C584.28,136.2999 669.54,159.0699 998.51,169.6699 C1012.31,170.1099 1015.79,170.1499 1029.51,171.6699 C1039.1,172.7199 1043.1889,173.1914 1053.1089,174.5914" fill="none" id="corkysoft_quote_service-to-corkysoft_au_address" style="stroke:#181818;stroke-width:1;"/><polygon fill="#181818" points="1059.05,175.4299,1050.6973,170.2115,1054.0991,174.7312,1049.5793,178.133,1059.05,175.4299" style="stroke:#181818;stroke-width:1;"/></g><!--link corkysoft_quote_service to corkysoft_pricing--><g class="link" data-entity-1="ent0005" data-entity-2="ent0004" data-link-type="dependency" data-source-line="17" id="lnk11"><path d="M145.18,196.7299 C168.22,183.6299 199.23,166.2799 227.01,151.6699 C244.43,142.4999 258.503,135.4319 275.243,127.2219" fill="none" id="corkysoft_quote_service-to-corkysoft_pricing" style="stroke:#181818;stroke-width:1;"/><polygon fill="#181818" points="280.63,124.5799,270.7882,124.9516,276.1408,126.7816,274.3108,132.1343,280.63,124.5799" style="stroke:#181818;stroke-width:1;"/></g><!--link corkysoft_quote_service to corkysoft_repo--><g class="link" data-entity-1="ent0005" data-entity-2="ent0006" data-link-type="dependency" data-source-line="18" id="lnk12"><path d="M197.44,229.6099 C220.23,230.0599 238.2303,230.0316 259.0103,228.8116" fill="none" id="corkysoft_quote_service-to-corkysoft_repo" style="stroke:#181818;stroke-width:1;"/><polygon fill="#181818" points="265,228.4599,255.781,224.9943,260.0086,228.7529,256.2499,232.9805,265,228.4599" style="stroke:#181818;stroke-width:1;"/></g><!--link corkysoft_repo to corkysoft_quote_service--><g class="link" data-entity-1="ent0006" data-entity-2="ent0005" data-link-type="dependency" data-source-line="21" id="lnk15"><path d="M265,204.8699 C244.22,203.6499 226.2288,203.1488 203.4388,203.6088" fill="none" id="corkysoft_repo-to-corkysoft_quote_service" style="stroke:#181818;stroke-width:1;"/><polygon fill="#181818" points="197.44,203.7299,206.5189,207.5475,202.439,203.629,206.3574,199.5491,197.44,203.7299" style="stroke:#181818;stroke-width:1;"/></g><!--link corkysoft_quote_service to corkysoft_routing--><g class="link" data-entity-1="ent0005" data-entity-2="ent0007" data-link-type="dependency" data-source-line="19" id="lnk13"><path d="M175.57,236.6499 C201.02,243.4999 230.63,250.2899 258.01,253.6699 C372.95,267.8599 502.0779,257.8832 580.6279,249.0132" fill="none" id="corkysoft_quote_service-to-corkysoft_routing" style="stroke:#181818;stroke-width:1;"/><polygon fill="#181818" points="586.59,248.3399,577.198,245.375,581.6216,248.9009,578.0957,253.3245,586.59,248.3399" style="stroke:#181818;stroke-width:1;"/></g><!--link corkysoft_repo to corkysoft_au_address--><g class="link" data-entity-1="ent0006" data-entity-2="ent0003" data-link-type="dependency" data-source-line="20" id="lnk14"><path d="M380.94,210.7899 C470,201.9299 647.72,185.5499 798.96,179.6699 C887.59,176.2199 909.87,176.8099 998.51,179.6699 C1018.18,180.2999 1033.3921,181.0489 1053.1921,182.3089" fill="none" id="corkysoft_repo-to-corkysoft_au_address" style="stroke:#181818;stroke-width:1;"/><polygon fill="#181818" points="1059.18,182.6899,1050.4522,178.1264,1054.1901,182.3724,1049.9441,186.1103,1059.18,182.6899" style="stroke:#181818;stroke-width:1;"/></g><!--link corkysoft_repo to corkysoft_routing--><g class="link" data-entity-1="ent0006" data-entity-2="ent0007" data-link-type="dependency" data-source-line="22" id="lnk16"><path d="M380.84,220.6499 C438.04,224.6499 520.1947,230.4008 580.4647,234.6208" fill="none" id="corkysoft_repo-to-corkysoft_routing" style="stroke:#181818;stroke-width:1;"/><polygon fill="#181818" points="586.45,235.0399,577.7514,230.421,581.4622,234.6907,577.1926,238.4015,586.45,235.0399" style="stroke:#181818;stroke-width:1;"/></g><!--link corkysoft_routing to corkysoft_au_address--><g class="link" data-entity-1="ent0007" data-entity-2="ent0003" data-link-type="dependency" data-source-line="23" id="lnk17"><path d="M720.36,252.2599 C790.26,263.3299 903.52,274.6899 998.51,253.6699 C1037.55,245.0299 1073.4069,227.2978 1100.8169,211.5578" fill="none" id="corkysoft_routing-to-corkysoft_au_address" style="stroke:#181818;stroke-width:1;"/><polygon fill="#181818" points="1106.02,208.5699,1096.2234,209.5829,1101.6841,211.0598,1100.2072,216.5205,1106.02,208.5699" style="stroke:#181818;stroke-width:1;"/></g><!--link corkysoft_routing to corkysoft_routing_providers--><g class="link" data-entity-1="ent0007" data-entity-2="ent0008" data-link-type="dependency" data-source-line="24" id="lnk18"><path d="M720.31,233.4399 C744.37,231.1699 766.1767,229.1048 792.5067,226.6148" fill="none" id="corkysoft_routing-to-corkysoft_routing_providers" style="stroke:#181818;stroke-width:1;"/><polygon fill="#181818" points="798.48,226.0499,789.1434,222.915,793.5022,226.5206,789.8966,230.8795,798.48,226.0499" style="stroke:#181818;stroke-width:1;"/></g><!--link corkysoft_routing_providers to corkysoft_au_address--><g class="link" data-entity-1="ent0008" data-entity-2="ent0003" data-link-type="dependency" data-source-line="25" id="lnk19"><path d="M998.78,205.0399 C1018.86,202.6799 1033.7711,200.9311 1053.0611,198.6611" fill="none" id="corkysoft_routing_providers-to-corkysoft_au_address" style="stroke:#181818;stroke-width:1;"/><polygon fill="#181818" points="1059.02,197.9599,1049.6142,195.0392,1054.0543,198.5443,1050.5492,202.9843,1059.02,197.9599" style="stroke:#181818;stroke-width:1;"/></g><!--link corkysoft_quote_service to external_analytics_persistence--><g class="link" data-entity-1="ent0005" data-entity-2="ent0020" data-link-type="dependency" data-source-line="27" id="lnk21"><path d="M126.01,236.5299 C150.38,265.9399 200.8,319.8199 258.01,340.6699 C359.99,377.8399 480.978,369.5005 562.848,357.0705" fill="none" id="corkysoft_quote_service-to-external_analytics_persistence" style="stroke:#181818;stroke-width:1;stroke-dasharray:7,7;"/><polygon fill="#181818" points="568.78,356.1699,559.2815,353.5662,563.8367,356.9204,560.4824,361.4755,568.78,356.1699" style="stroke:#181818;stroke-width:1;"/><text fill="#000000" font-family="sans-serif" font-size="13" lengthAdjust="spacing" textLength="84.1491" x="273.776" y="283.5669">quote_service</text><text fill="#000000" font-family="sans-serif" font-size="13" lengthAdjust="spacing" textLength="3.38" x="357.9251" y="283.5669">&#160;</text><text fill="#000000" font-family="sans-serif" font-size="13" lengthAdjust="spacing" textLength="11.622" x="361.3051" y="283.5669">-&gt;</text><text fill="#000000" font-family="sans-serif" font-size="13" lengthAdjust="spacing" textLength="105.6511" x="270.526" y="301.2729">kent_ams_import</text><text fill="#000000" font-family="sans-serif" font-size="13" lengthAdjust="spacing" textLength="84.1491" x="273.776" y="318.9789">quote_service</text><text fill="#000000" font-family="sans-serif" font-size="13" lengthAdjust="spacing" textLength="3.38" x="357.9251" y="318.9789">&#160;</text><text fill="#000000" font-family="sans-serif" font-size="13" lengthAdjust="spacing" textLength="11.622" x="361.3051" y="318.9789">-&gt;</text><text fill="#000000" font-family="sans-serif" font-size="13" lengthAdjust="spacing" textLength="118.7031" x="264" y="336.685">operational_signals</text></g><!--link corkysoft_repo to external_analytics_persistence--><g class="link" data-entity-1="ent0006" data-entity-2="ent0020" data-link-type="dependency" data-source-line="28" id="lnk22"><path d="M366.24,236.4899 C382.31,243.7799 400.87,251.8999 417.99,258.6699 C475.47,281.3899 536.4877,302.2235 584.0277,317.7835" fill="none" id="corkysoft_repo-to-external_analytics_persistence" style="stroke:#181818;stroke-width:1;stroke-dasharray:7,7;"/><polygon fill="#181818" points="589.73,319.6499,582.4208,313.0488,584.9781,318.0946,579.9322,320.6519,589.73,319.6499" style="stroke:#181818;stroke-width:1;"/><text fill="#000000" font-family="sans-serif" font-size="13" lengthAdjust="spacing" textLength="28.561" x="418.99" y="254.5669">repo</text><text fill="#000000" font-family="sans-serif" font-size="13" lengthAdjust="spacing" textLength="3.38" x="447.551" y="254.5669">&#160;</text><text fill="#000000" font-family="sans-serif" font-size="13" lengthAdjust="spacing" textLength="11.622" x="450.931" y="254.5669">-&gt;</text><text fill="#000000" font-family="sans-serif" font-size="13" lengthAdjust="spacing" textLength="3.38" x="462.553" y="254.5669">&#160;</text><text fill="#000000" font-family="sans-serif" font-size="13" lengthAdjust="spacing" textLength="72.7351" x="465.933" y="254.5669">routes_map</text></g><?plantuml-src ZPHDJyCm38Rl_HNMhcZJs0bng8Gu8m4xS1WeibAlZTec8V6-GFntKjfzjEj6JrNzFg_js6rOSK7mQ5o-ysR9yB8oJ703hsR5IgULGb51GM43JgKPGw8SILP6HpvNsgB34gGfhT6aUSwxaAy2KAS5dI0-myHigfnBBFofid5etrJ26SncqvDuYTidyXvJcgilWjkxQMHHvk4THdrzZk0x0bZ8_M4ck1AO92xa-03qS134KMWRh5CoPElGJRIDVbOD24zkhIHr32sjRNDaJOUkGXseFbINgwEzQEZSh5L2plURn45lsxtCgCIEfmv6Fz654y5u7FSFSvXXFyzXzDzu1gBDXDhc8UtsSEqbNaLxwZQVvP3IlUZvtgvebyii7ZGMErRIXt_bEQ3AC-dcWwKjamkwm3qax16vEFF99Fx72lVGMLCCURWS19PUg71JE7xNPuG96R2wLq9QhzBmEDlGeDBrWcAenaHUb6X_0G00?></g></svg>